<svg version="1.1" xmlns="http://www.w3.org/2000/svg" xmlns:xlink="http://www.w3.org/1999/xlink" width="138.52133" height="72.97967" viewBox="0,0,138.52133,72.97967"><defs><radialGradient cx="224.22044" cy="181.16382" r="37.54253" gradientUnits="userSpaceOnUse" id="color-1"><stop offset="0" stop-color="#e29339"/><stop offset="1" stop-color="#e38c28"/></radialGradient></defs><g transform="translate(-149.54879,-139.72931)"><g data-paper-data="{&quot;isPaintingLayer&quot;:true}" fill-rule="nonzero" stroke-miterlimit="10" stroke-dasharray="" stroke-dashoffset="0" style="mix-blend-mode: normal"><g><path d="M212.06691,205.11631c-6.67962,-2.06707 -19.85632,-6.72442 -16.55497,-13.02617c3.30061,-6.3008 20.04387,7.4721 24.10484,8.65009c0,0 4.92722,-4.05882 5.52833,-0.33545c0.60192,3.72342 -4.34913,3.42977 -4.34913,3.42977c0,0 5.66464,0.02284 3.92517,3.68369c-1.73936,3.66095 -4.38299,0.98843 -5.07955,-0.1094c0,0 2.11565,3.41892 -0.4565,4.53598c-2.573,1.11631 -4.29075,-2.31821 -2.40981,-4.53403c0,0 -1.45407,-1.28758 -4.70838,-2.29447v0v0v0z" fill="#e29339" stroke="#000000" stroke-width="1.52831" stroke-linecap="butt" stroke-linejoin="round"/><path d="M209.58491,159.11056v0v0v0v0c2.36996,-1.54944 4.3562,-2.90711 4.35705,-2.90636c-2.16301,-1.94251 -0.92211,-5.57623 1.77747,-4.81598c2.69959,0.76025 1.06291,4.4324 1.06291,4.4324c0.54208,-1.18089 2.80232,-4.18533 5.01754,-0.79099c2.21753,3.3944 -3.39332,4.17738 -3.39332,4.17738c0,0 4.86529,-0.95784 4.77039,2.81284c-0.0941,3.77063 -5.52274,0.41165 -5.52274,0.41165c-3.86495,1.71443 -18.13524,16.22997 -22.2532,10.43114c-4.1179,-5.79944 8.47821,-10.02479 14.1839,-13.75208z" fill="#e29339" stroke="#000000" stroke-width="1.52831" stroke-linecap="butt" stroke-linejoin="round"/><path d="M252.33996,148.31871v0v0v0v0c2.36916,-1.54949 4.3562,-2.90711 4.35545,-2.90626c-2.16221,-1.94265 -0.92201,-5.57624 1.77757,-4.81598c2.69959,0.76025 1.06291,4.4324 1.06291,4.4324c0.54198,-1.18088 2.80311,-4.18538 5.01834,-0.79104c2.21753,3.3944 -3.39342,4.17739 -3.39342,4.17739c0,0 4.86529,-0.95784 4.77039,2.81284c-0.0941,3.77053 -5.52193,0.4117 -5.52193,0.4117c-3.86575,1.71438 -18.1352,16.23057 -22.2532,10.43114c-4.1186,-5.7995 8.47821,-10.02479 14.1839,-13.75218z" fill="#e29339" stroke="#000000" stroke-width="1.52831" stroke-linecap="butt" stroke-linejoin="round"/><path d="M259.86187,198.05265v0v0v0v0c2.66309,0.96138 4.94254,1.7324 4.9426,1.7317c0.251,-2.89613 3.9007,-4.09093 4.91707,-1.47661c1.01562,2.61367 -2.90163,3.51518 -2.90163,3.51518c1.2691,-0.27801 5.029,-0.27843 3.65016,3.53282c-1.37869,3.81354 -5.379,-0.19855 -5.379,-0.19855c0,0 3.69234,3.31171 0.62295,5.5031c-3.0701,2.19294 -3.65081,-4.16418 -3.65081,-4.16418c-3.69513,-2.05656 -23.87498,-4.7259 -21.71859,-11.5039c2.15558,-6.77806 13.10765,0.74469 19.51726,3.06044z" fill="#e29339" stroke="#000000" stroke-width="1.52831" stroke-linecap="butt" stroke-linejoin="round"/><path d="M254.80084,160.26594v0v0v0v0c2.98946,1.79438 6.49089,8.21482 6.65163,14.94128c0.48523,7.12765 -4.08768,15.81474 -7.94608,18.1229c-8.14195,4.87094 -17.51073,2.4761 -23.85991,3.32873c-4.88022,0.65549 -7.85406,6.23542 -16.61211,6.33683c-14.42198,0.1681 -25.43389,-7.16822 -26.3471,-20.53215c-0.91326,-13.36463 10.40442,-19.87696 21.67138,-21.43879c7.63986,-1.06003 14.70979,3.23504 18.95907,2.60151c8.11014,-1.20965 20.91778,-7.30045 27.48313,-3.3603z" fill="url(#color-1)" stroke="#000000" stroke-width="1.52831" stroke-linecap="butt" stroke-linejoin="miter"/><path d="M271.50301,155.1785l3.76637,-7.80401" fill="none" stroke="#000000" stroke-width="1.52831" stroke-linecap="round" stroke-linejoin="miter"/><path d="M274.81593,156.34647l5.90039,-5.71942" fill="none" stroke="#000000" stroke-width="1.52831" stroke-linecap="round" stroke-linejoin="miter"/><path d="M279.22898,159.60118l5.45555,-3.40646" fill="none" stroke="#000000" stroke-width="1.52831" stroke-linecap="round" stroke-linejoin="miter"/><path d="M279.79266,198.98213l-3.66218,-6.27313" fill="none" stroke="#000000" stroke-width="1.52831" stroke-linecap="round" stroke-linejoin="miter"/><path d="M279.10968,190.46012l5.93814,5.67927" fill="none" stroke="#000000" stroke-width="1.52831" stroke-linecap="round" stroke-linejoin="miter"/><path d="M287.30597,189.14422l-6.36356,-0.93702" fill="none" stroke="#000000" stroke-width="1.52831" stroke-linecap="round" stroke-linejoin="miter"/><path d="M247.87708,160.10421c20.43832,-18.79132 25.92459,-3.61199 25.92459,-3.61199c0,0 0.07587,0.03951 0.11527,0.05611c4.64104,2.00487 7.86626,2.59667 8.46202,17.96553c0.69518,17.92939 -6.53475,18.58063 -6.53475,18.58063c-6.32019,15.37125 -25.02041,-2.05307 -25.02041,-2.05307" fill="#e29339" stroke="#000000" stroke-width="1.52831" stroke-linecap="butt" stroke-linejoin="round"/><g stroke-width="0.76416" stroke-linecap="butt" stroke-linejoin="miter"><path d="M275.15639,184.02613c-0.01721,-0.7181 0.25908,-1.37524 0.71846,-1.85782c0.46003,-0.48181 1.10324,-0.78917 1.82134,-0.80638c0.71811,-0.01711 1.37515,0.25919 1.85772,0.71847c0.48192,0.46012 0.78927,1.10323 0.80638,1.82134c0.01721,0.7181 -0.25908,1.37524 -0.71846,1.85782c-0.46013,0.48182 -1.10324,0.78917 -1.82134,0.80638c-0.71811,0.01711 -1.37515,-0.25919 -1.85772,-0.71847c-0.48192,-0.46012 -0.78927,-1.10323 -0.80638,-1.82134v0v0z" fill="#ffffff" stroke="#000000"/><path d="M276.62142,183.40943c-0.01066,-0.44769 0.16144,-0.85766 0.4486,-1.15809c0.28632,-0.30109 0.68759,-0.49264 1.13529,-0.5033c0.44769,-0.01076 0.85766,0.16144 1.15799,0.44851c0.30119,0.28631 0.49264,0.68759 0.5034,1.13528c0.01066,0.44769 -0.16144,0.85766 -0.4486,1.15809c-0.28632,0.30109 -0.68759,0.49264 -1.13529,0.5033c-0.44769,0.01066 -0.85766,-0.16144 -1.15799,-0.44851c-0.30119,-0.28631 -0.49264,-0.68769 -0.5034,-1.13528v0v0z" fill="#000000" stroke="none"/></g><g stroke-width="0.76416" stroke-linecap="butt" stroke-linejoin="miter"><path d="M273.87689,164.30735c-0.01711,-0.71811 0.25919,-1.37515 0.71846,-1.85782c0.46013,-0.48182 1.10324,-0.78917 1.82135,-0.80628c0.7181,-0.01721 1.37524,0.25908 1.85781,0.71836c0.48182,0.46013 0.78918,1.10334 0.80639,1.82144c0.01711,0.71801 -0.25919,1.37515 -0.71847,1.85772c-0.46013,0.48182 -1.10323,0.78927 -1.82134,0.80638c-0.71811,0.01711 -1.37524,-0.25908 -1.85782,-0.71846c-0.48182,-0.46013 -0.78917,-1.10324 -0.80638,-1.82134v0v0z" fill="#ffffff" stroke="#000000"/><path d="M275.34203,163.69065c-0.01066,-0.44769 0.16144,-0.85766 0.44851,-1.15799c0.28631,-0.30119 0.68769,-0.49264 1.13528,-0.5034c0.44769,-0.01066 0.85776,0.16143 1.15809,0.4486c0.30109,0.28632 0.49264,0.68759 0.5033,1.13529c0.01076,0.44759 -0.16144,0.85766 -0.44851,1.15799c-0.28631,0.30119 -0.68759,0.49264 -1.13528,0.5034c-0.44769,0.01066 -0.85766,-0.16144 -1.15809,-0.4486c-0.30109,-0.28632 -0.49264,-0.68759 -0.5033,-1.13529v0v0z" fill="#000000" stroke="none"/></g><path d="M281.41446,174.75283c-0.18718,-0.99965 -0.17604,-1.93861 -0.00719,-2.64887c0.16876,-0.71116 0.49605,-1.19225 0.94057,-1.27541c0.44439,-0.08324 0.92366,0.24684 1.33818,0.84873c0.41444,0.60109 0.76448,1.47239 0.95166,2.47204c0.1872,0.99975 0.17614,1.93859 0.00721,2.64896c-0.16878,0.71106 -0.49608,1.19216 -0.94047,1.27539c-0.44449,0.08326 -0.92366,-0.24684 -1.33827,-0.84871c-0.41444,-0.60109 -0.76448,-1.47239 -0.95168,-2.47213v0v0z" fill="#ec008c" stroke="#000000" stroke-width="1.30982" stroke-linecap="butt" stroke-linejoin="miter"/><g><path d="M260.67068,195.24187c-2.88705,-0.32319 -12.15452,2.77303 -12.96873,1.80649c-0.81506,-0.96739 0.67822,-1.81176 2.17598,-4.451c1.49781,-2.63845 4.65516,-10.29961 4.65516,-10.29961" fill="#e29339" stroke="#000000" stroke-width="1.52831" stroke-linecap="round" stroke-linejoin="round"/><path d="M250.91383,194.80842v0v0v0v0c0,0 3.92067,-5.30135 5.42284,-8.97112c0.6959,2.15497 2.57355,5.7195 3.42248,7.27532c0,0 -0.55424,-0.03567 -0.55275,-0.03416c-1.87348,-0.25562 -8.29258,1.72996 -8.29258,1.72996z" fill="#58595b" stroke="none" stroke-width="0.76416" stroke-linecap="butt" stroke-linejoin="miter"/></g><g><path d="M252.76655,169.75608c0,0 -3.51958,-7.50158 -5.14165,-10.06474c-1.62216,-2.56466 -3.15411,-3.33757 -2.3862,-4.34272c0.76711,-1.0036 10.17112,1.64576 13.04026,1.18587" fill="#e29339" stroke="#000000" stroke-width="1.52831" stroke-linecap="round" stroke-linejoin="round"/><path d="M248.55465,157.43186c0,0 6.50668,1.67667 8.36579,1.33184c-0.00146,0.00239 0.55042,-0.06048 0.55042,-0.06048c-0.77366,1.59462 -2.47887,5.24394 -3.07097,7.43051c-1.67658,-3.59386 -5.84524,-8.70187 -5.84524,-8.70187v0v0v0z" fill="#58595b" stroke="none" stroke-width="0.76416" stroke-linecap="butt" stroke-linejoin="miter"/></g><path d="M190.84003,187.64525c-1.61452,1.36457 -4.03049,1.1677 -5.40296,-0.44287c-4.6401,-5.44029 -9.40226,-8.10958 -14.15527,-7.93237c-7.89992,0.29398 -13.96546,8.28702 -14.02362,8.36676c-1.25524,1.7157 -3.65702,2.08546 -5.37141,0.83217c-1.71328,-1.25235 -2.08492,-3.65758 -0.83203,-5.37046c0.33138,-0.45294 8.23447,-11.07326 19.94164,-11.51012c7.22004,-0.26859 14.04693,3.30715 20.2884,10.62704c1.37699,1.61432 1.18397,4.0409 -0.43036,5.41789c-0.00478,0.00364 -0.00907,0.00775 -0.01438,0.01195v0v0v0v0v0z" fill="#e29339" stroke="#000000" stroke-width="1.52831" stroke-linecap="butt" stroke-linejoin="miter"/></g></g></g></svg>