<svg version="1.1" xmlns="http://www.w3.org/2000/svg" xmlns:xlink="http://www.w3.org/1999/xlink" width="98.49074" height="63.26736" viewBox="0,0,98.49074,63.26736"><g transform="translate(-191.74154,-149.27357)"><g data-paper-data="{&quot;isPaintingLayer&quot;:true}" fill-rule="nonzero" stroke-miterlimit="10" stroke-dasharray="" stroke-dashoffset="0" style="mix-blend-mode: normal"><g><path d="M225.15273,198.85501v0c-1.13545,-1.8763 3.31759,-3.93112 3.68602,-1.36188c0.26851,1.87428 1.59658,5.88686 1.59658,5.88686c0,0 6.21013,0.01817 5.68891,2.4349c-0.52244,2.4138 -4.01278,1.05397 -4.01278,1.05397c0,0 0.59412,4.22467 -0.98151,4.73558c-1.57565,0.511 -2.61855,-3.12717 -2.61855,-3.12717c0,0 -1.33466,2.12773 -2.50488,1.37692c-0.58642,-0.37583 -0.1487,-2.41777 0.90709,-4.02775c1.05562,-1.60719 -1.76087,-6.97143 -1.76087,-6.97143z" fill="#7f7f7f" stroke="#000000" stroke-width="1.39667" stroke-linecap="butt" stroke-linejoin="miter"/><path d="M231.35335,171.9564v0c-0.94537,1.97844 -5.108,-0.61408 -3.16175,-2.3323c1.41963,-1.25338 4.04407,-4.56649 4.04407,-4.56649c0,0 -3.39483,-5.20179 -1.08823,-6.09326c2.30433,-0.88887 3.08349,2.77552 3.08349,2.77552c0,0 3.20463,-2.81581 4.49671,-1.78044c1.2926,1.03824 -1.17562,3.90713 -1.17562,3.90713c0,0 2.51238,-0.05083 2.527,1.33763c0.00713,0.69663 -1.94012,1.45237 -3.865,1.45367c-1.92265,0.0001 -4.86068,5.29854 -4.86068,5.29854z" fill="#7f7f7f" stroke="#000000" stroke-width="1.39667" stroke-linecap="butt" stroke-linejoin="miter"/><path d="M250.1149,175.6791v0c-0.94467,1.97851 -5.1066,-0.61404 -3.16174,-2.3324c1.41893,-1.25335 4.04467,-4.56643 4.04467,-4.56643c0,0 -3.39613,-5.20182 -1.08813,-6.09325c2.30364,-0.88894 3.08278,2.77555 3.08278,2.77555c0,0 3.20324,-2.81594 4.49601,-1.7805c1.294,1.03837 -1.17492,3.9072 -1.17492,3.9072c0,0 2.51228,-0.05084 2.52701,1.33753c0.00713,0.69663 -1.94012,1.45237 -3.865,1.45367c-1.92266,0.0002 -4.86069,5.29864 -4.86069,5.29864z" fill="#7f7f7f" stroke="#000000" stroke-width="1.39667" stroke-linecap="butt" stroke-linejoin="miter"/><path d="M243.61065,201.08502v0c-1.58356,-1.51679 2.18048,-4.65863 3.2053,-2.27252c0.7456,1.73961 3.06997,5.26972 3.06997,5.26972c0,0 6.00412,-1.59769 6.12865,0.87259c0.1229,2.4653 -3.60044,2.05967 -3.60044,2.05967c0,0 1.67138,3.92525 0.28406,4.82811c-1.39021,0.9047 -3.34412,-2.33829 -3.34412,-2.33829c0,0 -0.73593,2.40238 -2.0594,1.98104c-0.66518,-0.21085 -0.77257,-2.29559 -0.17229,-4.12578c0.60145,-1.82666 -3.51174,-6.27454 -3.51174,-6.27454z" fill="#7f7f7f" stroke="#000000" stroke-width="1.39667" stroke-linecap="butt" stroke-linejoin="miter"/><path d="M259.49374,196.19913c-3.29309,3.33742 -11.8849,7.52388 -27.46175,4.77085c-15.57682,-2.75232 -18.26624,-12.83687 -15.46426,-22.2826c2.80317,-9.4435 12.18822,-13.37507 24.9083,-9.44083c11.86814,4.80825 13.10799,5.13329 17.10761,7.71395c9.40687,6.06983 4.5526,15.54722 0.91009,19.23862v0zM232.0313,200.96992c-15.57682,-2.75232 -18.26693,-12.83694 -15.46349,-22.28323c2.80178,-9.44363 12.18752,-13.37514 24.90761,-9.44089" fill="#7f7f7f" stroke="#000000" stroke-width="1.39667" stroke-linecap="butt" stroke-linejoin="miter"/><g stroke-linejoin="miter"><path d="M284.20934,203.89633c-2.66821,-1.94345 -3.02387,-4.55435 -3.02387,-4.55435" fill="none" stroke="#000000" stroke-width="0.69834" stroke-linecap="round"/><path d="M287.51649,201.4258c-3.18506,-0.87567 -4.44055,-3.18926 -4.44055,-3.18926" fill="none" stroke="#000000" stroke-width="0.69834" stroke-linecap="round"/><path d="M283.46476,182.6028c0,0 0.79658,-2.51205 3.75975,-3.9686" fill="none" stroke="#000000" stroke-width="0.69834" stroke-linecap="round"/><path d="M284.96099,184.75c0,0 1.63409,-2.0648 4.92212,-2.38085" fill="none" stroke="#000000" stroke-width="0.69834" stroke-linecap="round"/><path d="M269.61055,201.68403v0c-6.25103,-1.29806 -11.06954,-6.67671 -10.73184,-13.25176c0.33782,-6.57513 8.40485,-11.51907 12.21066,-11.19116c0,0 4.18829,-1.52104 9.01368,2.04133c2.30702,1.70264 6.79244,5.25672 6.16869,12.28653c-0.42863,4.85067 -3.26432,7.23431 -6.10487,8.58648c-6.17528,2.93864 -10.55633,1.52858 -10.55633,1.52858z" fill="#7f7f7f" stroke="#000000" stroke-width="1.39667" stroke-linecap="butt"/><path d="M284.10514,191.53612c0.07778,-0.90029 0.3987,-1.69478 0.85395,-2.25051c0.45526,-0.55583 1.04481,-0.87362 1.66125,-0.8204c0.61644,0.05323 1.1428,0.46735 1.49608,1.09299c0.35319,0.62553 0.53323,1.46327 0.45545,2.36356c-0.07768,0.9003 -0.3986,1.69479 -0.85386,2.25062c-0.45526,0.55583 -1.04481,0.87362 -1.66125,0.8204c-0.61644,-0.05323 -1.1428,-0.46735 -1.49608,-1.09299c-0.35318,-0.62563 -0.53322,-1.46337 -0.45554,-2.36367z" fill="#000000" stroke="#000000" stroke-width="1.39667" stroke-linecap="butt"/><g stroke-width="0.69834" stroke-linecap="butt"><path d="M272.7636,184.58363c0.07778,-0.90029 0.51418,-1.68481 1.15592,-2.2252c0.64237,-0.53963 1.49007,-0.83515 2.39038,-0.75747c0.90029,0.07778 1.68481,0.51418 2.2252,1.15592c0.53963,0.64237 0.83515,1.49007 0.75747,2.39038c-0.07778,0.90029 -0.51418,1.68481 -1.15592,2.2252c-0.64237,0.53963 -1.49007,0.83515 -2.39038,0.75747c-0.90029,-0.07778 -1.68491,-0.51419 -2.2252,-1.15592c-0.53963,-0.64237 -0.83515,-1.49007 -0.75747,-2.39038z" fill="#ffffff" stroke="#000000"/><path d="M274.68212,184.01468c0.04852,-0.56154 0.32064,-1.0511 0.72118,-1.38728c0.39992,-0.33695 0.92893,-0.52125 1.49037,-0.47274c0.56144,0.04851 1.051,0.32063 1.38728,0.72118c0.33695,0.39992 0.52116,0.92882 0.47274,1.49037c-0.04851,0.56144 -0.32073,1.05099 -0.72118,1.38728c-0.39992,0.33695 -0.92892,0.52115 -1.49036,0.47264c-0.56145,-0.04841 -1.0511,-0.32064 -1.38728,-0.72118c-0.33695,-0.39982 -0.52126,-0.92883 -0.47275,-1.49027z" fill="#000000" stroke="none"/><g stroke="none"><path d="M272.72879,188.18552c0,0 -4.8922,-3.71401 0.62536,-7.24274c0.00007,-0.0007 1.26319,4.16394 -0.62536,7.24274v0z" fill="#58595b"/><path d="M274.20838,184.92347c-0.23507,2.72181 -1.22083,3.87804 -1.26377,3.92834c-0.19045,0.21767 -0.5218,0.23955 -0.73953,0.0497c-0.21633,-0.18972 -0.23929,-0.51625 -0.05289,-0.73562c0.0188,-0.023 0.92604,-1.15376 1.04698,-3.85377c0.11262,-2.60265 -0.30851,-3.286 -0.31288,-3.29275c-0.18428,-0.21987 -0.14769,-0.53773 0.07507,-0.72383c0.22147,-0.18623 0.56194,-0.14354 0.74827,0.07794c0.15822,0.18811 0.66379,1.03083 0.53557,3.98472c-0.00911,0.19483 -0.02123,0.38444 -0.03682,0.56528v0v0z" fill="#000000"/></g></g><g stroke-width="0.69834" stroke-linecap="butt"><path d="M271.58785,196.09872c0.07778,-0.90029 0.51419,-1.68491 1.15592,-2.2252c0.64237,-0.53963 1.49017,-0.83514 2.39048,-0.75746c0.90029,0.07778 1.68481,0.51418 2.2252,1.15592c0.53963,0.64237 0.83505,1.49006 0.75737,2.39037c-0.07778,0.90029 -0.51418,1.68481 -1.15592,2.2252c-0.64237,0.53963 -1.49007,0.83515 -2.39038,0.75747c-0.90029,-0.07778 -1.68481,-0.51418 -2.2252,-1.15592c-0.53963,-0.64237 -0.83515,-1.49007 -0.75747,-2.39038z" fill="#ffffff" stroke="#000000"/><path d="M273.43316,195.461c0.04841,-0.56145 0.32063,-1.051 0.72118,-1.38728c0.39982,-0.33695 0.92882,-0.52116 1.49036,-0.47264c0.56145,0.04841 1.051,0.32063 1.38718,0.72117c0.33705,0.39983 0.52126,0.92883 0.47275,1.49027c-0.04842,0.56155 -0.32064,1.0511 -0.72118,1.38728c-0.39982,0.33695 -0.92883,0.52126 -1.49027,0.47275c-0.56154,-0.04852 -1.0511,-0.32064 -1.38728,-0.72118c-0.33704,-0.39993 -0.52126,-0.92883 -0.47274,-1.49037z" fill="#000000" stroke="none"/><g stroke="none"><path d="M271.91752,200.02573c0,0 -5.25253,-3.18506 -0.13154,-7.26887c0,0 1.68782,4.01073 0.13154,7.26887v0z" fill="#58595b"/><path d="M273.04784,196.62711c0.04951,2.73157 -0.80997,3.9835 -0.8484,4.03906c-0.16689,0.23582 -0.49424,0.29316 -0.72943,0.12703c-0.23449,-0.16606 -0.29276,-0.48998 -0.12869,-0.72678c0.01684,-0.02449 0.80063,-1.24376 0.64027,-3.94075c-0.15888,-2.60019 -0.64777,-3.23745 -0.6536,-3.24364c-0.20497,-0.19917 -0.20338,-0.5187 -0.00099,-0.72688c0.20091,-0.20842 0.54371,-0.20126 0.75219,-0.00095c0.17664,0.17011 0.76765,0.95639 0.94679,3.90676c0.01179,0.19585 0.0186,0.38498 0.02187,0.56614v0v0z" fill="#000000"/></g></g><path d="M270.25128,200.1896c0,0 -0.48509,5.6189 -4.85025,8.65204c-3.23384,2.24554 -8.49696,1.03344 -10.79176,-2.42539c-2.29629,-3.45907 -0.67762,-8.64919 3.82874,-10.67062c3.59708,-1.61492 7.86351,-0.97117 7.86351,-0.97117" fill="#57595b" stroke="#000000" stroke-width="1.39667" stroke-linecap="butt"/><path d="M266.80552,185.32456c0,0 -5.64067,-0.06293 -8.99089,-4.18912c-2.48235,-3.05733 -1.66595,-8.39662 1.61077,-10.94413c3.27665,-2.54672 8.57356,-1.3205 10.92741,3.02102c1.8793,3.46574 1.5569,7.76899 1.5569,7.76899" fill="#57595b" stroke="#000000" stroke-width="1.39667" stroke-linecap="butt"/></g><path d="M218.45279,185.53631c-5.07962,1.21777 -14.96505,2.62411 -22.01419,-6.1301c-9.68952,-12.0347 1.26241,-29.26719 1.37212,-29.4343c0,0 -9.84251,16.4885 -0.79195,27.73207c6.56598,8.15528 16.19047,6.28827 20.94888,5.14652c2.25338,1.06511 0.61342,2.62891 0.61342,2.62891c0,0 -0.00233,0.0272 -0.12828,0.05691v0z" fill="#58595b" stroke="#000000" stroke-width="1.39667" stroke-linecap="butt" stroke-linejoin="round"/></g></g></g></svg>